<?xml version="1.0" standalone="no"?>
<!DOCTYPE svg PUBLIC "-//W3C//DTD SVG 20010904//EN"
 "http://www.w3.org/TR/2001/REC-SVG-20010904/DTD/svg10.dtd">
<svg version="1.0" xmlns="http://www.w3.org/2000/svg"
 width="1123.000000pt" height="1123.000000pt" viewBox="0 0 1123.000000 1123.000000"
 preserveAspectRatio="xMidYMid meet">
<metadata>
Created by potrace 1.14, written by Peter Selinger 2001-2017
</metadata>
<g transform="translate(0.000000,1123.000000) scale(0.100000,-0.100000)"
fill="#000000" stroke="none">
<path d="M11175 7727 c-11 -6 -25 -15 -31 -21 -6 -6 -25 -22 -43 -36 -18 -14
-39 -31 -46 -37 -8 -7 -18 -13 -23 -13 -6 0 -12 -4 -14 -9 -1 -5 -35 -34 -74
-63 -144 -107 -369 -280 -410 -315 -11 -10 -27 -22 -36 -28 -9 -5 -33 -23 -54
-40 -78 -61 -272 -211 -304 -235 -34 -26 -97 -74 -115 -87 -35 -27 -102 -80
-115 -90 -89 -72 -171 -133 -178 -133 -4 0 -15 -8 -23 -17 -9 -10 -58 -49
-108 -88 -51 -38 -150 -114 -219 -168 -70 -54 -170 -131 -222 -170 -52 -39
-97 -74 -100 -77 -3 -3 -52 -42 -110 -85 -58 -44 -106 -83 -108 -87 -2 -5 -8
-8 -13 -8 -5 0 -17 -8 -27 -17 -22 -21 -32 -29 -137 -108 -44 -33 -82 -62 -85
-65 -3 -3 -48 -38 -100 -78 -52 -40 -133 -101 -180 -138 -47 -36 -128 -98
-180 -137 -52 -40 -104 -79 -115 -89 -92 -75 -214 -165 -219 -160 -3 3 -6 0
-6 -5 0 -6 -24 -28 -52 -49 -29 -21 -55 -41 -58 -44 -13 -14 -169 -130 -175
-130 -4 0 -39 28 -79 63 -40 34 -84 71 -97 82 -58 48 -144 120 -149 125 -3 3
-30 25 -60 50 -30 25 -60 50 -66 56 -15 13 -81 69 -219 185 -97 81 -145 121
-244 206 -29 24 -92 77 -165 138 -27 22 -58 49 -71 60 -12 11 -41 36 -65 55
-23 19 -52 43 -64 53 -11 11 -38 33 -59 50 -22 18 -49 40 -60 50 -12 10 -44
37 -72 60 -27 23 -56 49 -65 57 -9 8 -38 33 -65 55 -28 22 -55 44 -61 50 -6 5
-32 28 -58 50 -27 22 -56 47 -66 55 -10 8 -39 33 -66 55 -27 22 -55 47 -64 55
-9 8 -38 33 -65 55 -28 22 -55 44 -61 50 -6 6 -31 27 -54 46 -23 18 -47 39
-54 44 -21 19 -131 112 -155 131 -36 29 -45 37 -77 67 l-31 28 -191 -188
c-170 -167 -718 -707 -1387 -1368 -126 -124 -251 -247 -278 -271 -26 -25 -47
-47 -47 -49 0 -2 -24 -26 -52 -54 -61 -57 -457 -446 -724 -712 -99 -98 -185
-179 -190 -179 -6 0 -19 8 -30 18 -10 10 -35 28 -54 42 -19 13 -37 27 -40 30
-3 3 -124 95 -270 204 -146 110 -267 202 -270 206 -3 3 -50 39 -105 79 -55 41
-106 81 -112 89 -7 9 -13 12 -13 6 0 -5 -4 -4 -8 1 -6 9 -25 24 -107 88 -5 4
-41 31 -80 60 -38 28 -72 54 -75 57 -3 3 -50 39 -105 79 -55 41 -101 78 -103
83 -2 4 -10 8 -17 8 -7 0 -15 4 -17 8 -1 4 -50 44 -108 87 -58 44 -109 83
-115 88 -5 4 -75 57 -155 117 -80 60 -155 117 -166 127 -12 10 -28 23 -37 28
-8 6 -53 39 -99 74 -45 35 -90 69 -98 75 -16 11 17 -27 95 -109 46 -49 221
-233 358 -378 32 -34 113 -120 180 -191 67 -70 165 -173 217 -228 52 -56 123
-129 157 -164 33 -35 60 -64 59 -64 -1 0 30 -33 68 -74 142 -148 471 -494 571
-601 66 -70 306 -323 390 -411 l70 -73 45 35 c78 61 102 79 230 178 69 52 136
104 150 115 14 11 75 58 135 105 61 46 121 94 135 105 14 11 70 55 125 97 55
42 118 91 140 109 22 18 44 34 50 36 5 2 19 13 31 24 12 11 28 25 36 30 60 45
196 152 206 162 7 7 17 13 20 13 4 0 18 10 32 23 22 19 109 87 290 225 25 19
47 37 50 41 3 4 30 24 60 46 30 22 57 42 60 45 3 3 46 37 95 75 84 64 201 155
235 182 8 7 71 55 140 108 69 53 132 101 140 108 8 7 33 26 55 42 22 16 42 32
45 35 3 3 34 27 70 55 36 27 71 54 77 60 7 5 31 24 53 40 22 17 57 45 78 62
40 35 57 40 76 21 14 -14 138 -106 165 -123 9 -5 18 -12 21 -15 12 -13 140
-110 145 -110 2 0 17 -11 32 -24 16 -14 75 -60 133 -103 58 -42 111 -83 118
-90 7 -7 17 -13 20 -13 4 0 18 -10 32 -22 30 -28 221 -171 234 -177 6 -2 20
-15 33 -27 13 -13 27 -24 32 -24 4 0 16 -8 27 -18 16 -15 42 -35 149 -114 5
-5 29 -23 51 -40 23 -18 51 -40 63 -48 18 -12 141 -104 281 -210 14 -11 61
-46 105 -80 44 -33 85 -63 90 -68 6 -4 75 -57 155 -117 80 -60 147 -111 150
-114 3 -3 23 -19 46 -34 22 -15 49 -35 60 -45 10 -9 38 -30 62 -46 23 -16 42
-33 42 -37 0 -5 5 -9 10 -9 6 0 51 -32 100 -70 49 -39 92 -70 95 -70 3 0 13
-7 23 -16 9 -8 40 -33 69 -55 l51 -39 25 27 c42 46 70 78 117 133 25 29 60 68
78 87 17 18 32 36 32 38 0 3 17 23 38 45 20 21 46 50 57 63 43 51 140 162 146
167 3 3 39 43 80 90 40 47 78 90 84 96 15 17 111 126 132 150 78 91 132 153
156 178 15 16 45 50 66 75 42 49 47 55 131 151 30 34 60 68 65 74 6 6 30 34
55 62 47 52 137 155 186 213 16 18 45 51 65 72 19 21 53 59 74 84 21 25 50 59
64 74 35 38 73 82 151 171 35 41 74 86 87 100 12 14 41 47 65 74 24 27 50 57
58 66 8 9 42 47 75 85 33 39 71 82 85 97 14 15 34 38 45 51 24 29 131 151 164
186 13 14 44 50 70 80 25 30 55 64 66 77 11 12 40 45 65 74 25 29 56 65 70 80
43 48 179 202 239 273 9 10 27 31 41 46 41 46 154 174 233 265 23 26 56 63 72
81 17 18 49 55 72 82 149 171 188 216 216 246 31 32 32 41 2 24z"/>
</g>
</svg>
